<svg xmlns="http://www.w3.org/2000/svg" enable-background="new 0 0 64 64" viewBox="0 0 64 64"><path fill="#51bf9f" d="M33.4,63l-14-0.1c-0.8,0-1.4-0.6-1.4-1.4l0-1.9c0-0.8,0.6-1.4,1.4-1.4l13.5,0.1l0.6,0c0.8,0,1.4,0.6,1.4,1.4l0,1.9C34.8,62.4,34.1,63,33.4,63z"/><path fill="#445c6c" d="M46,35.4C46,35.4,46,35.4,46,35.4c-0.1-0.1-0.2-0.1-0.3-0.2c0,0,0,0-0.1-0.1c-0.1,0-0.2-0.1-0.4-0.1c0,0,0,0,0,0c0,0,0,0,0,0s0,0,0,0c-0.1,0-0.3,0-0.4,0.1c0,0,0,0-0.1,0c-0.1,0-0.2,0.1-0.3,0.2c0,0,0,0,0,0l-3.2,3.5c-0.4,0.4-0.3,1,0.1,1.4c0.2,0.2,0.4,0.3,0.7,0.3c0.3,0,0.5-0.1,0.7-0.3l1.5-1.6V63c0,0.5,0.4,1,1,1c0.5,0,1-0.4,1-1V38.6l1.5,1.6c0.4,0.4,1,0.4,1.4,0.1c0.4-0.4,0.4-1,0.1-1.4L46,35.4z"/><path fill="#2e435a" d="M56.5,22.9l-3.2-3.5c0,0,0,0,0,0c-0.1-0.1-0.2-0.1-0.2-0.2c0,0,0,0-0.1-0.1c-0.1,0-0.2-0.1-0.4-0.1c0,0,0,0,0,0l0,0c0,0,0,0,0,0c-0.1,0-0.3,0-0.4,0.1c0,0,0,0-0.1,0c-0.1,0-0.2,0.1-0.3,0.2c0,0,0,0,0,0l-3.2,3.5c-0.4,0.4-0.3,1,0.1,1.4c0.2,0.2,0.4,0.3,0.7,0.3c0.3,0,0.5-0.1,0.7-0.3l1.5-1.6v24.4c0,0.5,0.4,1,1,1c0.5,0,1-0.4,1-1V22.6l1.5,1.6c0.4,0.4,1,0.4,1.4,0.1C56.9,23.9,56.9,23.3,56.5,22.9z"/><path fill="#ffde17" d="M39,15.9c0,8.8-7.1,15.9-15.9,15.9c-7.8,0-14.4-5.7-15.7-13.1c-0.2-0.9-0.2-1.8-0.2-2.7c0-3,0.8-5.8,2.3-8.2c1.7-2.7,4.1-4.9,7.1-6.2c1.7-0.8,3.6-1.3,5.6-1.4c0.3,0,0.6,0,0.9,0C31.9,0,39,7.1,39,15.9z"/><circle cx="23.1" cy="15.9" r="13.1" fill="#e38900"/><path fill="#ffde17" d="M27,15.3c0.7-0.7,1-1.6,1-2.6c0-1.2-0.5-2.3-1.4-3c-0.7-0.6-1.5-0.9-2.6-1v-1c0-0.6-0.5-1.1-1.1-1.1c-0.6,0-1.1,0.5-1.1,1.1v1c-0.9,0-1.7,0.1-2.3,0.3C19.1,9,18.7,9.5,18.7,10v11.9c0,0.5,0.4,1,0.9,1.1c0.4,0.1,1.2,0.1,2.2,0.1v1c0,0.6,0.5,1.1,1.1,1.1c0.6,0,1.1-0.5,1.1-1.1V23c1.3-0.2,2.3-0.6,3.1-1.3c0.9-0.9,1.4-2,1.4-3.2C28.5,17,27.9,16,27,15.3z M20.9,10.9c0.5-0.1,1.2-0.1,1.8-0.1c1.3,0,2.1,0.2,2.7,0.7c0.4,0.3,0.6,0.7,0.6,1.3c0,0.7-0.5,1.2-1.2,1.6h-3.8V10.9z M25.7,20.1c-0.6,0.6-1.7,0.8-3.4,0.8c-0.5,0-1,0-1.3,0v-4.4h3.8c0,0,0,0,0,0c0.4,0.1,1.7,0.5,1.7,2C26.3,19.1,26.1,19.7,25.7,20.1z"/><path fill="#edc3a6" d="M32.8,58.3l-13.5-0.1l-0.1,0c-2.3-1.3-3.2-6-3.2-6L13,41.6c-0.4-1.2,0.1-2.5,1.2-2.9c0.3-0.1,0.5-0.2,0.8-0.2c0.8,0,1.6,0.5,2,1.4l2.8,7.2l-0.2-15.7l0-3.2c0-0.3,0.1-0.6,0.2-0.9c0.3-0.8,1.1-1.3,2-1.3c0.2,0,0.5,0,0.7,0.1c0.7,0.3,1.2,0.9,1.4,1.7c0,0.2,0,0.3,0,0.5l0.1,3.6l0.2,7.9l0-1.4c0-0.3,0.1-0.6,0.2-0.8c0.3-0.8,1.1-1.4,2-1.4c1.2,0,2.1,1,2.1,2.3l0,1.2c0-0.3,0.1-0.6,0.2-0.8c0.3-0.8,1.1-1.4,2-1.4c1.2,0,2.1,1,2.1,2.3l0,1.3c0,0,0,0,0,0l0,1.7l0-1.7c0.4-0.7,1.1-1.1,1.9-1.1c0.6,0,1.1,0.3,1.5,0.7c0.4,0.4,0.6,1,0.6,1.6l0,2.5C36.6,44.8,37,54.9,32.8,58.3z"/></svg>