<svg xmlns="http://www.w3.org/2000/svg" enable-background="new 0 0 178.9 48" viewBox="0 0 178.9 48"><path fill="#1452f5" fill-rule="evenodd" d="M91,6.2h-5.1v34.1c2.3,0.8,5.2,1.5,8.6,1.5c8.5,0,13.4-5,13.4-12.3c0-7.3-5-11.6-11.6-11.6
	c-2,0-4.1,0.6-5.2,1.1L91,6.2L91,6.2z M54.4,8.2c-1.7,0-3.2,1.4-3.2,3.1c0,1.8,1.5,3.3,3.2,3.3c1.7,0,3.2-1.4,3.2-3.3
	C57.6,9.6,56.1,8.2,54.4,8.2z M22.6,36.7c-1.1,0.4-2.3,0.7-3.6,0.7c-4.5,0-7.6-2.9-7.6-7.4c0-4.8,3.2-7.4,7.4-7.4
	c1.2,0,2.4,0.2,3.6,0.7c0.5-1.3,1.3-2.6,2.2-3.7c-1.9-1-3.8-1.5-6.2-1.5c-6.7,0-12.1,4.6-12.1,12c0,7.3,5.1,11.9,12.1,11.9
	c2.4,0,4.5-0.5,6.6-1.6C24,39.2,23.2,38,22.6,36.7L22.6,36.7z M36.7,17.9c6.9,0,11.9,4.9,11.9,12c0,7.1-5,11.9-11.9,11.9
	c-6.8,0-11.8-4.9-11.8-11.9C24.8,22.8,29.8,17.9,36.7,17.9z M30,29.9c0-4.6,2.8-7.6,6.6-7.6c3.9,0,6.7,2.9,6.7,7.6
	c0,4.6-2.7,7.5-6.7,7.5C32.8,37.4,30,34.5,30,29.9z M51.8,41.3h5.1V18.4h-5.1V41.3z M61.4,19.9c3.2-1.2,7.2-2,10.5-2
	c5.9,0,9.6,2.2,9.6,8.7v14.7h-5.1V27c0-3.3-2.1-4.5-4.9-4.5c-1.8,0-3.6,0.3-5,0.7v18.1h-5.1V19.9L61.4,19.9z M91,37
	c1,0.3,2.3,0.5,3.6,0.5c4.7,0,8.1-2.6,8.1-7.9c0-4.4-3.2-7.1-7.1-7.1c-2,0-3.6,0.5-4.6,1.1C91,23.6,91,37,91,37z M118.3,22.3
	c2.5,0,4.4,1.1,4.4,3.6v1.9h-2.5c-6.6,0-10.6,2.3-10.6,6.9c0,5.2,4.4,7,10.3,7c2.6,0,5.7-0.4,7.9-0.9V25.7c0-5.7-3.6-7.8-8.6-7.8
	c-2.9,0-5.4,0.7-7.5,1.9v4.4C113.5,23.1,115.6,22.3,118.3,22.3L118.3,22.3z M122.7,31.3h-2.2c-3.6,0-5.9,1-5.9,3.4
	c0,2.4,2.2,3.3,5.3,3.3c0.8,0,1.9-0.1,2.8-0.3C122.7,37.7,122.7,31.3,122.7,31.3z M138.4,37.7c-2.3,0-4.9-1-7-2.6V40
	c1.7,1.1,4.4,1.9,7.1,1.9c5,0,8.7-2.2,8.7-7c0-4.1-2.3-6.1-7.5-7.2c-2.6-0.7-3.6-1.5-3.6-3s1.2-2.6,3.4-2.6c2.4,0,4.4,0.9,6.4,2.3
	v-4.7c-1.9-1.2-4-1.8-6.6-1.8c-4.7,0-8.2,2.3-8.2,6.9c0,4,2,5.9,6.8,7c3,0.8,4.3,1.4,4.3,3.3C142.2,36.9,140.7,37.7,138.4,37.7
	L138.4,37.7z M154.2,31v0.1c0.3,4.1,3.8,6.3,7.4,6.3c3.2,0,5.4-0.7,7.7-2.2v4.5c-2.1,1.4-5.1,2.1-8.1,2.1c-7.2,0-12-4.5-12-11.8
	c0-7.3,4.8-12.1,11.1-12.1c6.7,0,9.9,4.3,9.9,10.5V31C170.2,31,154.2,31,154.2,31z M160.2,22.2c3.3,0,5.1,2,5.2,5.5h-11
	C155.1,24.3,157.2,22.2,160.2,22.2L160.2,22.2z" clip-rule="evenodd"/></svg>